<?xml version="1.0" standalone="no"?>
<!DOCTYPE svg PUBLIC "-//W3C//DTD SVG 20010904//EN"
 "http://www.w3.org/TR/2001/REC-SVG-20010904/DTD/svg10.dtd">
<svg version="1.0" xmlns="http://www.w3.org/2000/svg"
 width="640.000000pt" height="640.000000pt" viewBox="0 0 640.000000 640.000000"
 preserveAspectRatio="xMidYMid meet">

<g transform="translate(0.000000,640.000000) scale(0.100000,-0.100000)"
fill="#000000" stroke="none">
<path d="M0 3200 l0 -3200 3200 0 3200 0 0 3200 0 3200 -3200 0 -3200 0 0
-3200z m2867 2634 c112 -171 142 -206 203 -236 79 -40 159 -46 233 -18 80 30
108 57 178 173 60 100 132 187 155 187 26 0 117 -96 164 -173 83 -135 140
-312 140 -435 0 -70 16 -109 75 -177 45 -51 145 -196 145 -209 0 -3 14 -35 32
-73 28 -58 32 -80 33 -148 1 -48 6 -90 15 -105 9 -17 14 -57 13 -120 0 -108
-16 -157 -104 -315 -106 -192 -243 -359 -406 -494 -120 -101 -172 -128 -213
-111 -27 11 -34 8 -117 -51 -81 -58 -190 -119 -211 -119 -18 0 -191 104 -255
153 -35 27 -42 29 -73 19 -43 -13 -92 9 -184 83 -229 184 -387 396 -525 708
-19 45 -17 174 6 245 11 34 11 47 1 63 -10 16 -9 31 3 79 34 131 116 279 224
404 54 64 56 71 71 213 11 118 62 267 126 374 50 82 165 203 187 196 7 -2 44
-53 84 -113z m-1100 -3201 c20 -8 13 -110 -8 -124 -21 -13 -34 -5 -37 24 -7
54 -83 76 -122 35 -11 -12 -20 -28 -20 -35 0 -21 35 -50 101 -83 79 -40 109
-73 109 -117 0 -80 -70 -133 -177 -133 -33 0 -74 5 -92 11 -30 11 -31 13 -31
70 0 59 0 59 30 59 25 0 30 -4 30 -25 0 -36 33 -65 75 -65 34 0 75 27 75 51 0
27 -26 52 -89 84 -76 38 -121 83 -121 122 0 59 45 110 118 134 27 8 129 3 159
-8z m1727 -106 c47 -186 74 -263 98 -279 14 -9 19 -20 15 -31 -5 -14 -21 -17
-97 -17 -82 0 -90 2 -90 19 0 12 9 21 26 25 25 7 26 10 20 49 -4 23 -12 45
-19 50 -17 11 -120 -1 -129 -16 -13 -20 -21 -56 -14 -72 3 -8 17 -15 31 -15
18 0 25 -5 25 -20 0 -18 -7 -20 -85 -20 -73 0 -85 2 -85 17 0 9 8 25 18 36 9
10 46 100 82 200 l65 182 45 5 c25 3 50 4 55 3 6 -2 23 -54 39 -116z m910 54
c-6 -59 -8 -61 -35 -61 -24 0 -29 4 -29 25 0 28 -30 45 -80 45 -37 0 -50 -23
-50 -89 l0 -51 76 0 c65 0 75 -2 70 -16 -3 -9 -6 -20 -6 -25 0 -5 -32 -9 -70
-9 l-71 0 3 -72 3 -73 39 -3 c62 -5 86 5 102 43 11 27 20 35 40 35 19 0 24 -4
20 -17 -3 -10 -8 -39 -12 -65 l-6 -48 -164 0 c-150 0 -164 2 -164 18 0 9 10
22 23 27 21 10 22 14 25 183 2 169 2 172 -18 172 -15 0 -20 5 -18 18 3 15 21
18 163 22 88 3 161 4 163 4 2 -1 0 -29 -4 -63z m-2364 40 c0 -11 -9 -22 -19
-26 -16 -5 -21 -19 -26 -78 -3 -40 -5 -115 -3 -167 3 -88 5 -96 26 -105 12 -5
21 -17 20 -25 -3 -12 -22 -16 -91 -18 -81 -3 -87 -1 -87 17 0 11 9 22 20 26
28 9 31 31 28 195 -3 139 -4 145 -25 155 -23 10 -29 25 -16 38 3 4 44 7 90 7
75 0 83 -2 83 -19z m212 -3 c-1 -9 -34 -47 -72 -84 -38 -37 -72 -76 -76 -86
-8 -25 96 -184 131 -200 38 -17 33 -48 -7 -50 -56 -2 -72 2 -94 25 -27 29
-124 184 -124 199 0 6 27 39 60 74 63 65 74 92 40 101 -20 5 -26 23 -13 37 4
4 41 5 83 4 64 -3 75 -5 72 -20z m218 7 c0 -9 -12 -20 -26 -25 -20 -8 -24 -14
-18 -33 13 -43 55 -127 63 -127 12 0 70 132 64 147 -3 7 -12 13 -20 13 -8 0
-13 7 -11 18 3 14 16 17 81 20 69 3 77 1 77 -16 0 -10 -12 -27 -27 -39 -16
-11 -52 -63 -80 -116 -48 -86 -53 -102 -53 -157 0 -59 1 -61 30 -67 21 -4 30
-11 28 -22 -3 -13 -21 -16 -106 -19 -93 -2 -102 -1 -102 15 0 11 12 23 30 30
28 11 30 15 30 65 0 44 -8 68 -48 143 -59 113 -61 117 -94 138 -17 11 -25 23
-22 32 9 22 204 22 204 0z m420 -3 c0 -9 -9 -23 -20 -30 -17 -10 -20 -23 -20
-77 l0 -65 85 0 86 0 -3 73 c-3 66 -5 72 -25 75 -25 4 -26 4 -17 26 5 13 23
16 95 16 97 0 106 -7 64 -46 l-25 -24 2 -162 c3 -162 3 -163 26 -166 15 -2 22
-9 20 -20 -3 -14 -19 -17 -96 -20 -84 -3 -92 -1 -92 16 0 10 11 24 25 30 23
11 25 17 25 82 l0 70 -71 0 c-96 0 -109 -8 -109 -71 0 -56 13 -89 35 -89 8 0
15 -9 15 -20 0 -19 -7 -20 -90 -20 -79 0 -90 2 -90 18 0 9 10 22 23 27 21 10
22 15 25 178 l2 167 -25 10 c-16 6 -23 14 -19 25 5 12 24 15 90 15 74 0 84 -2
84 -18z m920 -2 c0 -13 -7 -20 -20 -20 -33 0 -34 -26 -6 -153 35 -154 36 -157
46 -157 12 0 92 255 88 282 -2 17 -11 24 -31 26 -20 3 -27 8 -25 20 3 14 18
18 82 20 92 3 110 -7 78 -41 -12 -13 -50 -102 -83 -198 -34 -96 -66 -180 -72
-186 -5 -7 -31 -13 -57 -13 l-48 0 -11 48 c-22 87 -82 293 -93 317 -6 14 -19
27 -30 30 -18 6 -24 26 -11 38 3 4 48 7 100 7 86 0 93 -1 93 -20z m901 -122
l94 -143 3 109 c3 124 1 136 -28 136 -22 0 -23 1 -14 24 5 13 22 16 85 16 71
0 79 -2 79 -19 0 -11 -9 -22 -19 -26 -27 -8 -30 -29 -31 -214 -1 -90 -4 -170
-7 -178 -3 -7 -19 -13 -37 -12 -29 0 -37 10 -129 151 -54 83 -100 149 -102
146 -9 -9 -13 -213 -4 -230 5 -10 19 -18 30 -18 14 0 19 -5 17 -17 -3 -15 -16
-18 -86 -21 -77 -3 -82 -2 -82 18 0 11 4 20 9 20 5 0 17 7 25 16 13 13 16 43
16 175 l0 159 -25 6 c-16 4 -25 13 -25 25 0 17 8 19 68 19 l69 0 94 -142z"/>
<path d="M2719 5836 c-102 -101 -184 -298 -201 -481 -12 -128 -22 -151 -108
-255 -77 -94 -140 -206 -174 -307 -30 -91 -31 -93 -11 -93 21 0 19 -23 -11
-115 -24 -77 -27 -131 -7 -181 8 -21 23 -17 23 5 0 24 39 116 45 109 3 -3 0
-29 -6 -57 -6 -29 -8 -68 -4 -88 l6 -36 41 39 c26 25 39 32 34 20 -24 -68 -29
-156 -8 -156 3 0 21 14 39 32 18 17 35 29 39 25 3 -3 -2 -29 -11 -58 -19 -57
-16 -169 6 -211 37 -71 236 -275 338 -347 34 -23 61 -39 61 -36 0 4 -18 29
-40 55 -52 62 -51 75 2 25 l41 -40 -23 40 c-13 22 -30 49 -37 60 -33 50 -6 31
63 -44 77 -82 217 -188 328 -247 68 -37 69 -37 176 32 141 91 208 142 274 209
54 56 63 62 42 30 -35 -53 -33 -65 4 -30 48 46 34 14 -21 -48 -28 -31 -47 -57
-42 -57 15 0 164 116 225 176 79 77 173 186 193 224 24 47 29 137 11 205 -8
32 -13 61 -10 64 2 2 20 -10 39 -29 30 -29 35 -31 41 -16 7 19 0 110 -12 141
-5 15 2 11 26 -12 50 -51 54 -47 51 52 -1 28 -5 58 -8 69 -3 12 -1 16 6 12 5
-4 18 -31 27 -61 10 -30 21 -55 25 -55 12 0 22 104 14 152 -4 23 -16 64 -27
90 -18 43 -19 48 -3 71 15 23 14 29 -6 87 -39 114 -125 255 -206 340 -49 51
-62 88 -73 200 -10 101 -19 147 -46 228 -31 93 -113 230 -173 286 -25 24 -33
27 -46 16 -8 -7 -20 -31 -25 -54 -6 -22 -15 -50 -21 -61 -8 -16 -9 -14 -4 13
2 17 1 32 -3 32 -13 0 -29 -35 -37 -79 -5 -31 -10 -40 -16 -30 -12 19 -25 -1
-40 -58 -11 -42 -23 -55 -31 -32 -2 7 -16 1 -33 -13 -74 -62 -168 -86 -267
-68 -69 13 -106 29 -160 72 l-37 29 -3 -23 c-3 -17 -8 -9 -21 31 -20 65 -36
88 -48 69 -6 -9 -9 -6 -9 10 0 12 -7 39 -17 60 l-16 37 -7 -30 c-6 -30 -6 -30
-19 15 -19 65 -29 90 -39 90 -4 0 -28 -20 -53 -44z m34 -210 c114 -85 217
-193 217 -226 0 -13 11 -12 100 6 35 6 35 6 -15 -27 -72 -48 -124 -97 -156
-148 -36 -56 -38 -82 -3 -44 25 28 25 28 9 2 -22 -37 -35 -88 -25 -94 5 -3 18
14 28 37 l19 43 -4 -50 c-3 -30 -1 -45 4 -38 7 10 20 3 50 -26 23 -22 44 -37
47 -34 3 4 6 20 6 37 l0 31 20 -25 c10 -14 21 -39 25 -57 6 -33 -11 -119 -26
-128 -4 -3 -25 6 -46 21 -48 33 -128 74 -144 74 -19 0 -119 -72 -119 -85 0 -7
19 -31 41 -54 l41 -41 98 0 c116 0 122 -4 128 -91 2 -32 7 -59 11 -59 12 1 91
112 113 161 13 26 26 48 29 49 3 0 13 -17 22 -39 10 -21 41 -71 70 -111 l52
-72 8 67 c4 38 12 74 18 82 8 9 40 13 110 13 l99 0 40 40 c22 22 40 46 40 54
0 16 -98 86 -121 86 -9 0 -53 -23 -99 -50 -46 -28 -84 -49 -85 -48 -29 37 -33
133 -8 181 l17 32 7 -33 c4 -18 8 -35 11 -37 2 -2 23 14 46 35 23 22 42 34 42
27 0 -8 3 -8 9 2 5 8 5 27 0 44 -13 47 -2 45 17 -2 11 -29 20 -39 27 -32 7 7
2 26 -15 61 l-26 51 25 -23 25 -23 -7 25 c-13 45 -99 137 -168 182 -26 17 -46
33 -43 35 2 2 21 0 43 -6 55 -16 71 -14 78 10 17 54 275 283 295 263 9 -10 37
-78 81 -198 35 -96 38 -176 9 -267 -25 -77 -35 -139 -24 -139 5 0 32 -20 59
-45 28 -24 53 -45 56 -45 8 0 60 -78 64 -94 1 -6 5 -18 8 -26 3 -8 10 -32 15
-52 10 -37 10 -37 -16 -27 -18 7 -27 6 -33 -2 -4 -6 -12 -8 -19 -4 -10 6 -11
2 -7 -16 4 -13 18 -75 33 -138 27 -113 27 -114 9 -170 -16 -51 -65 -128 -65
-102 0 41 -67 -31 -109 -116 -53 -107 -175 -240 -272 -295 -26 -16 -51 -28
-54 -28 -3 0 5 21 18 48 42 83 67 172 83 289 8 63 19 124 24 137 13 35 73 124
124 186 33 39 42 56 32 58 -23 5 -77 -24 -124 -67 -34 -32 -42 -35 -36 -18 5
19 1 17 -29 -11 l-35 -34 -41 42 c-23 24 -44 40 -47 37 -4 -3 13 -44 37 -91
24 -47 40 -88 36 -93 -5 -4 -12 -1 -17 7 -7 10 -10 -7 -11 -55 -1 -38 -4 -58
-6 -42 -4 27 -23 39 -23 14 0 -18 -68 -81 -109 -102 -25 -13 -45 -15 -75 -10
-49 9 -78 8 -128 -1 -51 -8 -118 25 -166 83 -35 42 -37 43 -44 21 -3 -14 -7 3
-7 42 -2 61 -3 64 -17 45 -15 -19 -15 -19 -8 10 3 17 22 58 40 92 46 82 43 96
-9 45 l-43 -43 -20 22 c-10 11 -27 25 -37 31 -16 8 -18 7 -13 -10 5 -15 -3
-12 -31 15 -48 44 -93 73 -115 73 -10 0 -18 -2 -18 -5 0 -3 30 -44 67 -93 83
-108 103 -155 114 -256 12 -109 42 -225 78 -300 16 -33 27 -63 25 -65 -9 -10
-148 95 -202 154 -56 59 -132 171 -132 193 0 15 -79 112 -91 112 -6 0 -8 -8
-5 -17 4 -10 -7 -2 -23 17 -17 19 -33 48 -37 65 -3 16 -11 36 -17 43 -10 13
-7 36 34 206 23 97 24 117 6 91 -13 -17 -14 -17 -21 6 -4 14 -9 19 -13 12 -2
-7 -11 -13 -20 -13 -15 0 -12 34 8 88 10 26 21 30 13 5 -5 -14 -4 -15 4 -4 6
8 8 20 5 28 -8 19 38 82 65 89 12 4 22 11 22 18 0 6 18 24 40 40 45 34 53 48
41 79 -56 141 -63 230 -27 333 34 96 76 206 82 216 8 13 11 11 87 -46z m451
-360 c-18 -8 -35 -19 -38 -25 -4 -6 -11 -9 -16 -6 -5 3 -11 1 -15 -5 -3 -5 -2
-10 3 -10 5 0 12 -18 16 -39 4 -25 15 -47 31 -59 33 -26 15 -38 -25 -17 -35
18 -64 68 -56 100 10 40 55 75 95 75 l36 -1 -31 -13z m774 -561 c-3 -3 -9 2
-12 12 -6 14 -5 15 5 6 7 -7 10 -15 7 -18z m-461 -357 c-3 -7 -5 -2 -5 12 0
14 2 19 5 13 2 -7 2 -19 0 -25z m-133 -207 c-25 -122 -364 -117 -364 5 0 14 3
24 8 22 68 -35 80 -38 126 -24 46 14 77 10 129 -15 10 -6 17 -5 17 1 0 5 7 10
16 10 9 0 27 9 41 20 32 25 35 22 27 -19z m-220 -293 c33 8 51 8 75 -1 23 -8
38 -9 61 0 l30 11 0 -43 c0 -24 -9 -64 -19 -88 -22 -50 -86 -127 -106 -127 -7
0 -36 25 -63 55 -50 54 -72 110 -72 180 0 23 2 24 26 13 19 -9 36 -9 68 0z
m-130 -143 c14 -30 46 -77 72 -105 26 -27 43 -50 38 -50 -5 0 -32 15 -60 34
-53 36 -99 88 -128 144 l-17 32 36 0 c33 0 37 -3 59 -55z m426 46 c0 -12 -47
-80 -79 -115 -27 -30 -108 -86 -124 -86 -5 0 16 27 46 60 30 32 61 76 68 97 6
21 17 41 23 45 15 11 66 10 66 -1z"/>
<path d="M3640 5242 c0 -23 28 -63 48 -68 12 -4 22 -13 22 -21 0 -9 5 -11 13
-6 6 4 20 6 31 4 30 -5 13 22 -25 40 -19 9 -43 26 -53 38 -19 21 -36 27 -36
13z"/>
<path d="M3930 4898 c0 -8 9 -25 20 -38 14 -16 20 -19 20 -8 0 8 -9 25 -20 38
-14 16 -20 19 -20 8z"/>
<path d="M3932 4480 c0 -14 2 -19 5 -12 2 6 2 18 0 25 -3 6 -5 1 -5 -13z"/>
<path d="M3110 4437 c-57 -29 -47 -107 17 -134 48 -19 98 -19 151 2 35 14 43
23 48 53 12 64 -25 92 -126 92 -36 0 -76 -6 -90 -13z"/>
<path d="M2711 4274 c0 -11 3 -14 6 -6 3 7 2 16 -1 19 -3 4 -6 -2 -5 -13z"/>
<path d="M3649 4113 c-48 -50 -79 -92 -79 -106 0 -5 17 9 38 30 54 56 102 112
102 118 0 14 -20 0 -61 -42z"/>
<path d="M3338 4116 c-23 -17 -23 -25 1 -19 11 3 22 11 25 19 7 17 -4 17 -26
0z"/>
<path d="M4138 4277 c-64 -123 -74 -167 -18 -75 33 53 54 108 42 108 -4 0 -15
-15 -24 -33z"/>
<path d="M3382 2529 c-28 -73 -42 -122 -37 -130 7 -11 65 -12 82 -1 9 6 8 23
-4 72 -19 77 -29 92 -41 59z"/>
</g>
</svg>
